/* XPM */
static char gb_image[] = {
/* width height ncolors chars_per_pixel */
"32 32 8 1",
/* colors */
"  c #000000",
". c #000000",
"# c #4080C0",
"x c #102030",
"y c #306090",
"* c #FF8000",
"| c #FF8000",
"o c #A05000",
/* pixels */
"          ######         ###### ",
"           y###x         x###y  ",
"            y##y         y##y   ",
"            x###x       x###x   ",
"             y##y       y##y    ",
"             x###x     x###x    ",
"              y##y     y##y     ",
"              x###x   x###x     ",
"               y##y   y##y      ",
"               x###x x###x      ",
"                y##y y##y       ",
"                x###x###x       ",
"                 y#####y        ",
"                 x#####x        ",
"                  y###y         ",
"                  x###x         ",
"                  y###y         ",
"                 x#####x        ",
"      *** ****o o|||##||**o     ",
"       ** ** ** ||#|*#||x**     ",
"       ** ** ** ||#y y||y**     ",
"       ** ** **x||#x x||#|*     ",
" o**** ** **** y#||*o ||||o     ",
" ** ** ** ** *|###x** *|##x     ",
" ** ** ** ** *|##y ** *|##y     ",
" ** ** ** ** ||#|* ** **###x    ",
"  ***********|##y***o **y##y    ",
"    **      x###x       x###x   ",
" ** **      y##y         y##y   ",
" o***o     y###x         x###y  ",
"          ######         ###### ",
"                                ",
}
